<svg width="30" height="32" viewBox="0 0 30 32" fill="none" xmlns="http://www.w3.org/2000/svg">
<path d="M4.98442 28.3764C4.87549 28.2625 4.72431 28.1971 4.57021 28.1971C4.4161 28.1971 4.26492 28.2625 4.15594 28.3764C4.04695 28.4903 3.98425 28.6481 3.98425 28.809C3.98425 28.9699 4.04689 29.1278 4.15594 29.2415C4.26492 29.3553 4.4161 29.4208 4.57021 29.4208C4.72431 29.4208 4.87549 29.3554 4.98442 29.2415C5.0934 29.1278 5.15616 28.9699 5.15616 28.809C5.15616 28.6481 5.09346 28.4902 4.98442 28.3764Z" fill="#FFBB01"/>
<path d="M27.5116 11.7345C27.4026 11.6206 27.252 11.5552 27.0973 11.5552C26.9432 11.5552 26.792 11.6206 26.683 11.7345C26.5741 11.8483 26.5114 12.0062 26.5114 12.1671C26.5114 12.328 26.574 12.4859 26.683 12.5996C26.792 12.7134 26.9432 12.7789 27.0973 12.7789C27.252 12.7789 27.4026 12.7135 27.5116 12.5996C27.6211 12.4859 27.6838 12.328 27.6838 12.1671C27.6838 12.0062 27.6211 11.8483 27.5116 11.7345Z" fill="#FFBB01"/>
<path d="M29.8284 0.720654C29.7184 0.605932 29.5694 0.541443 29.4139 0.541443L14.9999 0.542238C14.6763 0.542238 14.414 0.816225 14.414 1.15409V2.9038L8.85978 4.45784C8.54717 4.54533 8.36166 4.88081 8.44545 5.20717L11.3241 16.425L8.83382 19.0253C8.51688 18.542 7.98471 18.2242 7.38277 18.2242H1.7578C0.788516 18.2242 0 19.0477 0 20.0597V30.0326C0 31.0448 0.788516 31.8682 1.7578 31.8682H7.38282C8.20626 31.8682 8.89898 31.2737 9.08882 30.4744L9.78552 31.1088C10.3234 31.5986 11.0124 31.8683 11.7261 31.8683H29.414C29.7376 31.8683 30 31.5943 30 31.2564V1.15329C29.9999 0.991031 29.9382 0.835376 29.8284 0.720654ZM7.96866 30.0327C7.96866 30.37 7.7058 30.6446 7.38271 30.6446H1.75774C1.43465 30.6446 1.17179 30.3701 1.17179 30.0327V20.0598C1.17179 19.7224 1.43465 19.4479 1.75774 19.4479H3.9843V26.4962C3.9843 26.834 4.24669 27.108 4.57025 27.108C4.89382 27.108 5.1562 26.834 5.1562 26.4962V19.4479H7.38277C7.70586 19.4479 7.96872 19.7224 7.96872 20.0598V30.0327H7.96866ZM9.72904 5.48146L14.414 4.17064V6.43785L14.0213 6.54774C13.8711 6.58977 13.7432 6.69226 13.6655 6.8328C13.5878 6.97334 13.5667 7.14031 13.6069 7.29707C13.8321 8.17453 13.3316 9.07964 12.4913 9.31477C12.341 9.35687 12.2129 9.45953 12.1352 9.60038C12.0576 9.74117 12.0367 9.90845 12.0773 10.0653L14.3613 18.8967H13.1853L12.5792 16.4209C12.5599 16.3421 12.5262 16.2694 12.481 16.2063L9.72904 5.48146ZM14.414 9.24374V14.4066L13.3452 10.2745C13.7917 10.0338 14.157 9.67362 14.414 9.24374ZM22.832 30.6445H11.726C11.2956 30.6445 10.88 30.4819 10.5556 30.1865L9.14056 28.8979V20.4356L11.6987 17.7644L12.1627 19.6599C12.229 19.9307 12.4626 20.1202 12.7303 20.1202L24.2504 20.1209C24.7028 20.1209 25.0707 20.5052 25.0707 20.9775C25.0707 21.4499 24.7028 21.8341 24.2504 21.8341H18.3475C18.024 21.8341 17.7616 22.1081 17.7616 22.4459C17.7616 22.7838 18.024 23.0578 18.3475 23.0578H26.0844C26.5368 23.0578 26.9048 23.442 26.9048 23.9144C26.9048 24.3867 26.5368 24.771 26.0844 24.771H18.3475C18.024 24.771 17.7616 25.045 17.7616 25.3828C17.7616 25.7207 18.024 25.9947 18.3475 25.9947H24.8307C25.283 25.9947 25.651 26.3789 25.651 26.8513C25.651 27.3236 25.283 27.7079 24.8307 27.7079H18.3475C18.024 27.7079 17.7616 27.9818 17.7616 28.3197C17.7616 28.6576 18.024 28.9316 18.3475 28.9316H22.832C23.2843 28.9316 23.6523 29.3158 23.6523 29.7882C23.6523 30.2603 23.2843 30.6445 22.832 30.6445ZM28.8281 30.6445H28.828H24.6467C24.7604 30.3831 24.8242 30.0932 24.8242 29.7879C24.8242 29.4826 24.7604 29.1928 24.6467 28.9313H24.8307C25.9292 28.9313 26.8228 27.9981 26.8228 26.8511C26.8228 26.5165 26.7464 26.2004 26.6114 25.92C27.4549 25.6781 28.0766 24.8708 28.0766 23.9143C28.0766 23.4502 27.9302 23.0213 27.6833 22.675V14.9204C27.6833 14.5825 27.4209 14.3085 27.0974 14.3085C26.7738 14.3085 26.5114 14.5825 26.5114 14.9204V21.8827C26.3737 21.8512 26.2309 21.8341 26.0843 21.8341H26.0651C26.1787 21.5727 26.2425 21.2828 26.2425 20.9775C26.2425 19.8304 25.3488 18.8973 24.2503 18.8973H23.3084C24.3086 18.4494 25.011 17.4113 25.011 16.2048C25.011 14.5902 23.7531 13.2766 22.2068 13.2766C20.6606 13.2766 19.4026 14.5902 19.4026 16.2048C19.4026 17.4113 20.1051 18.4494 21.1052 18.8973H17.9023V7.26342C18.949 7.02523 19.775 6.16282 20.003 5.06975H24.4106C24.6387 6.16282 25.4646 7.02523 26.5114 7.26342V9.16566C26.5114 9.50353 26.7737 9.77751 27.0973 9.77751C27.4209 9.77751 27.6833 9.50353 27.6833 9.16566V6.71716C27.6833 6.37929 27.4209 6.10531 27.0973 6.10531C26.2273 6.10531 25.5197 5.36625 25.5197 4.4579C25.5197 4.12004 25.2573 3.84605 24.9337 3.84605H19.4799C19.1564 3.84605 18.894 4.12004 18.894 4.4579C18.894 5.36631 18.1863 6.10531 17.3164 6.10531C16.9928 6.10531 16.7304 6.37929 16.7304 6.71716V18.8972H15.5859V1.76582L28.8281 1.76514V30.6445ZM22.207 17.9093C21.3069 17.9093 20.5747 17.1447 20.5747 16.2049C20.5747 15.2651 21.3069 14.5004 22.207 14.5004C23.107 14.5004 23.8392 15.265 23.8392 16.2048C23.8392 17.1446 23.107 17.9093 22.207 17.9093Z" fill="#FFBB01"/>
</svg>
