<svg width="30" height="27" viewBox="0 0 30 27" fill="none" xmlns="http://www.w3.org/2000/svg">
<path d="M19.7397 4.48706C19.0122 4.48706 18.3262 4.78588 17.8182 5.30686C17.3102 4.78588 16.6241 4.48706 15.8967 4.48706C14.383 4.48706 13.1515 5.77302 13.1515 7.35363C13.1515 8.80307 13.9347 10.2797 15.4164 11.6237C16.502 12.6084 17.575 13.179 17.6201 13.2028C17.6824 13.2357 17.7503 13.2521 17.8182 13.2521C17.8861 13.2521 17.954 13.2356 18.0163 13.2028C18.0614 13.179 19.1344 12.6084 20.22 11.6237C21.7017 10.2797 22.4849 8.80307 22.4849 7.35363C22.4849 5.77302 21.2534 4.48706 19.7397 4.48706ZM17.8182 12.2708C17.0123 11.7949 14.0304 9.86375 14.0304 7.35363C14.0304 6.27907 14.8676 5.40481 15.8967 5.40481C16.523 5.40481 17.1045 5.73111 17.4521 6.27766C17.5335 6.40572 17.6709 6.48268 17.8182 6.48268C17.9654 6.48268 18.1028 6.40572 18.1843 6.27766C18.5319 5.73111 19.1133 5.40481 19.7397 5.40481C20.7688 5.40481 21.606 6.27907 21.606 7.35363C21.606 9.86375 18.624 11.7949 17.8182 12.2708Z" fill="#FFBB01"/>
<path d="M26.7424 4.48706H24.3939C24.1512 4.48706 23.9545 4.69251 23.9545 4.94594C23.9545 5.19936 24.1512 5.40481 24.3939 5.40481H26.7424C26.9851 5.40481 27.1819 5.19936 27.1819 4.94594C27.1819 4.69251 26.9851 4.48706 26.7424 4.48706Z" fill="#FFBB01"/>
<path d="M25.803 9.39169H24.3939C24.1512 9.39169 23.9545 9.59715 23.9545 9.85057C23.9545 10.104 24.1512 10.3094 24.3939 10.3094H25.803C26.0457 10.3094 26.2424 10.104 26.2424 9.85057C26.2424 9.59715 26.0457 9.39169 25.803 9.39169Z" fill="#FFBB01"/>
<path d="M26.7424 6.93948H24.3939C24.1512 6.93948 23.9545 7.14494 23.9545 7.39836C23.9545 7.65178 24.1512 7.85724 24.3939 7.85724H26.7424C26.9851 7.85724 27.1819 7.65178 27.1819 7.39836C27.1819 7.14494 26.9851 6.93948 26.7424 6.93948Z" fill="#FFBB01"/>
<path d="M8.89403 11.7808C9.13673 11.7808 9.33349 11.5753 9.33349 11.3219C9.33349 11.0685 9.13673 10.863 8.89403 10.863H7.95483C7.71214 10.863 7.51538 11.0685 7.51538 11.3219C7.51538 11.5753 7.71214 11.7808 7.95483 11.7808H8.89403Z" fill="#FFBB01"/>
<path d="M4.1969 11.7808H6.07577C6.31846 11.7808 6.51522 11.5753 6.51522 11.3219C6.51522 11.0685 6.31846 10.863 6.07577 10.863H4.1969C3.9542 10.863 3.75745 11.0685 3.75745 11.3219C3.75745 11.5753 3.9542 11.7808 4.1969 11.7808Z" fill="#FFBB01"/>
<path d="M4.1969 14.2332H8.89389C9.13659 14.2332 9.33334 14.0278 9.33334 13.7743C9.33334 13.5209 9.13659 13.3155 8.89389 13.3155H4.1969C3.9542 13.3155 3.75745 13.5209 3.75745 13.7743C3.75745 14.0278 3.9542 14.2332 4.1969 14.2332Z" fill="#FFBB01"/>
<path d="M9.33334 16.2265C9.33334 15.9731 9.13659 15.7676 8.89389 15.7676H4.1969C3.9542 15.7676 3.75745 15.9731 3.75745 16.2265C3.75745 16.4799 3.9542 16.6854 4.1969 16.6854H8.89389C9.13659 16.6854 9.33334 16.4799 9.33334 16.2265Z" fill="#FFBB01"/>
<path d="M7.95471 19.1376H15.4698C15.7125 19.1376 15.9092 18.9321 15.9092 18.6787C15.9092 18.4253 15.7125 18.2198 15.4698 18.2198H7.95471C7.71202 18.2198 7.51526 18.4253 7.51526 18.6787C7.51526 18.9321 7.71202 19.1376 7.95471 19.1376Z" fill="#FFBB01"/>
<path d="M4.1969 18.2198C3.9542 18.2198 3.75745 18.4253 3.75745 18.6787C3.75745 18.9321 3.9542 19.1376 4.1969 19.1376H6.07577C6.31846 19.1376 6.51522 18.9321 6.51522 18.6787C6.51522 18.4253 6.31846 18.2198 6.07577 18.2198H4.1969Z" fill="#FFBB01"/>
<path d="M25.803 11.8441H24.3939C24.1512 11.8441 23.9545 12.0496 23.9545 12.303C23.9545 12.5564 24.1512 12.7619 24.3939 12.7619H25.803C26.0457 12.7619 26.2424 12.5564 26.2424 12.303C26.2424 12.0496 26.0457 11.8441 25.803 11.8441Z" fill="#FFBB01"/>
<path d="M28.1515 0.563538H12.1818C11.1625 0.563538 10.3333 1.42941 10.3333 2.49376V14.7551C10.3333 15.8195 11.1625 16.6853 12.1818 16.6853H22.3331L25.6298 20.1278C25.8042 20.3099 26.0356 20.4063 26.2718 20.4063C26.389 20.4063 26.5075 20.3825 26.6206 20.3336C26.9616 20.1861 27.1819 19.8419 27.1819 19.4565V16.6854H28.1515C29.1708 16.6854 30 15.8195 30 14.7552V2.49376C30 1.42941 29.1708 0.563538 28.1515 0.563538ZM29.1211 14.7552C29.1211 15.3135 28.6862 15.7676 28.1515 15.7676H26.7424C26.4997 15.7676 26.303 15.9731 26.303 16.2265V19.4565C26.303 19.4674 26.303 19.4776 26.2843 19.4857C26.2656 19.4937 26.2587 19.4865 26.2513 19.4789L22.8259 15.9021C22.7435 15.816 22.6317 15.7676 22.5152 15.7676H12.1818C11.6472 15.7676 11.2122 15.3135 11.2122 14.7552V2.49376C11.2122 1.93546 11.6472 1.48129 12.1818 1.48129H28.1514C28.6861 1.48129 29.121 1.93546 29.121 2.49376V14.7552H29.1211Z" fill="#FFBB01"/>
<path d="M19.2272 17.7294C18.9846 17.7294 18.7878 17.9349 18.7878 18.1883V21.1311C18.7878 21.6894 18.3529 22.1435 17.8182 22.1435H7.48488C7.36834 22.1435 7.25654 22.1919 7.17416 22.278L3.74877 25.8548C3.74145 25.8624 3.73441 25.8697 3.71578 25.8617C3.69709 25.8536 3.69709 25.8433 3.69709 25.8325V22.6025C3.69709 22.349 3.50033 22.1436 3.25764 22.1436H1.84852C1.31385 22.1436 0.878906 21.6894 0.878906 21.1311V8.8697C0.878906 8.3114 1.31385 7.85724 1.84852 7.85724H8.89406C9.13676 7.85724 9.33352 7.65178 9.33352 7.39836C9.33352 7.14494 9.13676 6.93948 8.89406 6.93948H1.84852C0.829219 6.93948 0 7.80535 0 8.8697V21.1311C0 22.1954 0.829219 23.0613 1.84852 23.0613H2.81813V25.8324C2.81813 26.2177 3.03844 26.562 3.37939 26.7095C3.49254 26.7584 3.61096 26.7822 3.72826 26.7822C3.9644 26.7822 4.19584 26.6857 4.37022 26.5037L7.66693 23.0613H17.8182C18.8375 23.0613 19.6668 22.1954 19.6668 21.1311V18.1883C19.6667 17.9349 19.4699 17.7294 19.2272 17.7294Z" fill="#FFBB01"/>
</svg>
