<svg width="30" height="34" viewBox="0 0 30 34" fill="none" xmlns="http://www.w3.org/2000/svg">
<path d="M15.8687 21.5032C16.4223 21.4583 16.9269 21.1634 17.2545 20.6931L22.2335 13.5056C22.3861 13.2851 22.3632 12.9808 22.1782 12.7876C21.9931 12.5949 21.7017 12.5711 21.4906 12.7299L14.6062 17.9306C14.1574 18.2715 13.8751 18.7985 13.832 19.3765C13.7889 19.9546 13.9894 20.5204 14.3813 20.9296C14.7381 21.3028 15.2194 21.5094 15.7198 21.5094C15.7692 21.5094 15.8187 21.5071 15.8687 21.5032ZM14.8923 19.4632C14.911 19.2094 15.0354 18.9778 15.2311 18.829L19.4305 15.6567L16.3935 20.0406C16.25 20.2467 16.0282 20.376 15.7852 20.396C15.5432 20.4127 15.3055 20.325 15.1327 20.1445C14.9615 19.9651 14.8732 19.7164 14.8923 19.4632Z" fill="#FFBB01"/>
<path d="M27.7804 11.2723C27.7751 11.2606 27.7751 11.2484 27.7692 11.2368C27.7629 11.2257 27.7528 11.2195 27.7458 11.209C27.2082 10.2461 26.5722 9.35048 25.8501 8.53866L26.9923 7.34648L27.7442 8.13165L30 5.7756L27.7442 3.42011L25.4879 5.7756L26.2404 6.56132L25.0981 7.7535C24.3207 6.99944 23.4635 6.33477 22.5408 5.77338C22.5307 5.76616 22.5249 5.75561 22.5143 5.74895C22.5031 5.74229 22.4914 5.74284 22.4802 5.73673C20.8354 4.74723 18.9875 4.08811 17.0173 3.84657V3.18523H17.815C18.5483 3.18523 19.1444 2.56277 19.1444 1.79704C19.1444 1.03131 18.5477 0.408844 17.8144 0.408844H13.0285C12.2952 0.408844 11.699 1.03131 11.699 1.79704C11.699 2.56277 12.2952 3.18523 13.0285 3.18523H13.8261V3.82713C13.2518 3.89099 12.6786 3.98872 12.1117 4.12421C11.8256 4.19251 11.6464 4.49069 11.7123 4.78943C11.7777 5.08817 12.0633 5.27585 12.3494 5.20644C12.8386 5.08928 13.3326 5.00099 13.8277 4.94158L14.3983 4.89549C14.5727 4.88161 14.7333 4.87161 14.8897 4.86384V5.96162C14.8897 6.26869 15.1274 6.5169 15.4215 6.5169C15.7155 6.5169 15.9532 6.26869 15.9532 5.96162V4.86772C17.9532 4.96379 19.8378 5.52462 21.5135 6.44749L20.9891 7.39535C20.8424 7.66133 20.9296 8.0006 21.1838 8.15386C21.2672 8.20439 21.3587 8.22826 21.4491 8.22826C21.6331 8.22826 21.8118 8.12887 21.9102 7.95063L22.4329 7.00499C24.0968 8.10721 25.5103 9.58314 26.5658 11.3206L25.6602 11.8664C25.4066 12.0197 25.3194 12.359 25.4667 12.625C25.5656 12.8032 25.7437 12.9026 25.9277 12.9026C26.0181 12.9026 26.1096 12.8787 26.1931 12.8282L27.1008 12.2807C27.9968 14.0553 28.5355 16.0555 28.6158 18.1772H27.5656C27.2715 18.1772 27.0338 18.4254 27.0338 18.7325C27.0338 19.0395 27.2715 19.2877 27.5656 19.2877H28.6158C28.5355 21.4094 27.9968 23.4096 27.1008 25.1842L26.1931 24.6367C25.9389 24.4835 25.6134 24.5734 25.4667 24.84C25.3199 25.1059 25.4071 25.4452 25.6613 25.5985L26.5669 26.1443C25.5113 27.8818 24.0979 29.3577 22.434 30.4599L21.9112 29.5143C21.7639 29.2477 21.4379 29.1572 21.1848 29.311C20.9301 29.4643 20.8429 29.8041 20.9902 30.0696L21.5145 31.0174C19.8389 31.9403 17.9543 32.5011 15.9543 32.5972V31.5044C15.9543 31.1973 15.7166 30.9491 15.4225 30.9491C15.1284 30.9491 14.8907 31.1973 14.8907 31.5044V32.6016C14.0415 32.5711 13.1896 32.46 12.351 32.259C12.0649 32.1874 11.7793 32.3773 11.7139 32.676C11.648 32.9748 11.8272 33.273 12.1133 33.3413C13.1747 33.5967 14.259 33.7255 15.3348 33.7255C15.3608 33.7255 15.3858 33.7238 15.4119 33.7233C15.4156 33.7233 15.4183 33.7255 15.4215 33.7255C15.4257 33.7255 15.4294 33.7227 15.4337 33.7227C17.9899 33.7044 20.3882 32.9837 22.4632 31.7387C22.4797 31.7309 22.4972 31.7271 22.5132 31.7171C22.5238 31.7104 22.5297 31.6999 22.5398 31.6926C24.6876 30.3855 26.4823 28.5137 27.7368 26.2726C27.7469 26.2576 27.7597 26.2459 27.7687 26.2293C27.7751 26.2176 27.7746 26.2054 27.7799 26.1937C28.9944 23.9948 29.6927 21.4483 29.6927 18.733C29.6927 16.0177 28.9944 13.4712 27.7804 11.2723ZM27.7437 4.99044L28.4956 5.7756L27.7437 6.56132L26.9913 5.7756L27.7437 4.99044ZM14.8897 3.75217V2.07468H13.0285C12.8822 2.07468 12.7626 1.94974 12.7626 1.79704C12.7626 1.64434 12.8822 1.5194 13.0285 1.5194H17.8144C17.9607 1.5194 18.0803 1.64434 18.0803 1.79704C18.0803 1.94974 17.9607 2.07468 17.8144 2.07468H15.9532V3.75217C15.7682 3.7444 15.5916 3.74051 15.4215 3.74051C15.4066 3.74051 15.3895 3.74162 15.3747 3.74162C15.3614 3.74162 15.3481 3.74051 15.3348 3.74051C15.2476 3.74051 15.1604 3.74662 15.0731 3.74828C15.0115 3.74995 14.9535 3.74939 14.8897 3.75217Z" fill="#FFBB01"/>
<path d="M10.6356 8.18283H7.97672C7.68265 8.18283 7.44495 8.43104 7.44495 8.73811C7.44495 9.04518 7.68265 9.29339 7.97672 9.29339H10.6356C10.9297 9.29339 11.1674 9.04518 11.1674 8.73811C11.1674 8.43104 10.9297 8.18283 10.6356 8.18283Z" fill="#FFBB01"/>
<path d="M10.6355 12.0696H5.31772C5.02365 12.0696 4.78595 12.3179 4.78595 12.6249C4.78595 12.932 5.02365 13.1802 5.31772 13.1802H10.6355C10.9295 13.1802 11.1672 12.932 11.1672 12.6249C11.1672 12.3179 10.9295 12.0696 10.6355 12.0696Z" fill="#FFBB01"/>
<path d="M10.6355 15.9565H2.65885C2.36478 15.9565 2.12708 16.2047 2.12708 16.5118C2.12708 16.8188 2.36478 17.067 2.65885 17.067H10.6355C10.9295 17.067 11.1672 16.8188 11.1672 16.5118C11.1672 16.2047 10.9295 15.9565 10.6355 15.9565Z" fill="#FFBB01"/>
<path d="M10.6355 19.8437H0.531774C0.237703 19.8437 0 20.0919 0 20.3989C0 20.706 0.237703 20.9542 0.531774 20.9542H10.6355C10.9295 20.9542 11.1673 20.706 11.1673 20.3989C11.1673 20.0919 10.9295 19.8437 10.6355 19.8437Z" fill="#FFBB01"/>
<path d="M10.6354 23.7305H3.72233C3.42825 23.7305 3.19055 23.9787 3.19055 24.2857C3.19055 24.5928 3.42825 24.841 3.72233 24.841H10.6354C10.9295 24.841 11.1672 24.5928 11.1672 24.2857C11.1672 23.9787 10.9295 23.7305 10.6354 23.7305Z" fill="#FFBB01"/>
<path d="M10.6355 27.6174H6.91306C6.61899 27.6174 6.38129 27.8656 6.38129 28.1727C6.38129 28.4797 6.61899 28.728 6.91306 28.728H10.6355C10.9295 28.728 11.1673 28.4797 11.1673 28.1727C11.1673 27.8656 10.9295 27.6174 10.6355 27.6174Z" fill="#FFBB01"/>
</svg>
